# xmcd CD database file
#
# Track frame offsets:
#	151
#	17819
#	32865
#	53941
#	70465
#	90577
#	105252
#	119076
#	134674
#	146548
#	162351
#
# Disc length: 2300 seconds
#
# Revision: 0
# Processed by: cddbd v1.5.1PL2 Copyright (c) Steve Scherf et al.
# Submitted via: CDex 1.51
#
DISCID=9f08fa0b
DTITLE=A Choired Taste - To Mom
DYEAR=1900
DGENRE=Blues
TTITLE0=To Mom
TTITLE1=Deeds
TTITLE2=Someday
TTITLE3=The Wild Blue
TTITLE4=Soul Smokin'
TTITLE5=The Prayer
TTITLE6=Step by Step
TTITLE7=Christmas
TTITLE8=Never
TTITLE9=Warm Chocolate
TTITLE10=Petite Fleur
EXTD=
EXTT0=
EXTT1=
EXTT2=
EXTT3=
EXTT4=
EXTT5=
EXTT6=
EXTT7=
EXTT8=
EXTT9=
EXTT10=
PLAYORDER=
